<svg xmlns="http://www.w3.org/2000/svg" viewBox="0 0 64 80" x="0px" y="0px"><path d="M56,13h-5c-4.418,0-8,3.582-8,8v1h-14.19c-2.646,0-5.287,.291-7.851,.864-1.019,.231-1.841,.447-2.573,.677-1.619,.48-3.263,1.104-4.89,1.854-2.265,1.06-4.403,2.34-6.353,3.803-1.094,.813-2.14,1.686-3.107,2.592l-3.72,3.48S0,35.576,0,36C0,36.964,.929,38.772,2.31,40H1C.448,40,0,40.448,0,41H0c0,.552,.448,1,1,1H57v2H1C.448,44,0,44.448,0,45H0c0,.552,.448,1,1,1H43v.725c0,2.028,.65,4.042,1.994,5.561,1.544,1.745,3.701,2.714,6.006,2.714h4.725c2.028,0,4.042-.65,5.561-1.994,1.745-1.544,2.714-3.701,2.714-6.006V21c0-4.418-3.582-8-8-8Zm-11,8c0-3.309,2.691-6,6-6,1.603,0,3.109,.624,4.243,1.757,1.133,1.134,1.757,2.641,1.757,4.243v1h-12v-1ZM8,40c-3.351,0-4.883-1.758-5.55-3H22.134l11-3h18.866c.553,0,1-.447,1-1s-.447-1-1-1h-19.134l-11,3H3.532l1.871-1.751c.836-.784,1.741-1.535,2.683-2.249h8.303c1.973,0,3.853-.742,5.294-2.091,.403-.378,.424-1.011,.047-1.414-.38-.404-1.018-.422-1.422-.039-.938,.889-2.071,1.544-3.363,1.544h-5.936c1.071-.653,2.182-1.255,3.329-1.792,1.534-.708,3.088-1.296,4.63-1.754,.694-.217,1.468-.42,2.43-.639,2.418-.541,4.911-.815,7.411-.815h28.19v3h-13c-.553,0-1,.447-1,1s.447,1,1,1h13v11H8Zm38.757,11.243c-1.133-1.134-1.757-2.641-1.757-4.243v-1h12v1c0,3.309-2.691,6-6,6-1.603,0-3.109-.624-4.243-1.757Zm15.243-4.243c0,1.603-.624,3.109-1.757,4.243-1.065,1.064-2.46,1.672-3.954,1.743,1.658-1.467,2.711-3.603,2.711-5.986V21c0-4.179-2.583-5.877-2.704-5.985,3.171,.156,5.704,2.776,5.704,5.985v26Z"/><path d="M39,27h-4c-.553,0-1,.447-1,1s.447,1,1,1h4c.553,0,1-.447,1-1s-.447-1-1-1Z"/><text x="0" y="79" fill="#000000" font-size="5px" font-weight="bold" font-family="'Helvetica Neue', Helvetica, Arial-Unicode, Arial, Sans-serif">Created by Supanut Piyakanont</text><text x="0" y="84" fill="#000000" font-size="5px" font-weight="bold" font-family="'Helvetica Neue', Helvetica, Arial-Unicode, Arial, Sans-serif">from the Noun Project</text></svg>